<svg width="82" height="82" viewBox="0 0 82 82" fill="none" xmlns="http://www.w3.org/2000/svg">
<path fill-rule="evenodd" clip-rule="evenodd" d="M78.3286 38.2957C78.3286 23.6632 70.4784 10.9447 58.795 3.92571C47.5408 10.7659 39.9604 23.0014 39.5313 37.0438C53.9754 37.4732 66.6149 45.1028 73.9974 56.4736C76.7672 51.0154 78.3286 44.8382 78.3286 38.2957ZM75.5233 59.0123C78.927 52.8768 80.8656 45.813 80.8656 38.2957C80.8656 22.4266 71.5863 8.36011 58.7762 1C46.4488 8.20345 37.4312 21.814 36.9932 37.0427C21.7377 37.4831 8.17149 46.5848 1 59.0108C8.36642 71.7765 22.4625 81 38.2437 81C45.7466 81 52.7967 79.0576 58.9204 75.6473C65.0441 79.0576 73.4416 80.9125 80.9445 80.9125C80.9445 73.3951 78.927 65.1479 75.5233 59.0123ZM72.5913 59.0123C65.7823 47.7039 53.5674 40.0311 39.5326 39.5869C39.9759 53.6489 47.6338 65.8875 58.9204 72.7096C64.5142 69.3285 69.2167 64.6169 72.5913 59.0123ZM36.9943 39.5857C22.9447 40.0167 10.7132 47.6908 3.89597 59.0123C10.9145 70.6682 23.6719 78.4581 38.2437 78.4581C44.7737 78.4581 50.939 76.8936 56.3866 74.1184C45.0378 66.7216 37.4229 54.0577 36.9943 39.5857ZM73.9974 61.5511C76.5843 66.6488 78.1171 72.3737 78.3083 78.4377C72.256 78.2461 66.5421 76.7103 61.4543 74.1184C66.4608 70.8554 70.7406 66.5672 73.9974 61.5511Z" fill="black" stroke="black" stroke-width="0.5"/>
</svg>
